<?xml version="1.0" encoding="UTF-8"?>
<svg xmlns="http://www.w3.org/2000/svg" xmlns:xlink="http://www.w3.org/1999/xlink" width="208pt" height="208pt" viewBox="0 0 208 208" version="1.1">
<g id="surface157680">
<path style=" stroke:none;fill-rule:nonzero;fill:rgb(100%,100%,100%);fill-opacity:1;" d="M 104 1.5 C 47.40625 1.5 1.5 47.40625 1.5 104 C 1.5 160.59375 47.40625 206.5 104 206.5 C 160.59375 206.5 206.5 160.59375 206.5 104 C 206.5 47.40625 160.59375 1.5 104 1.5 Z M 104 17.5 C 151.6875 17.5 190.5 56.3125 190.5 104 C 190.5 107.75 190.21875 111.375 189.75 115 C 188.15625 114.59375 183.15625 113.3125 177.75 113.25 C 172.90625 113.1875 167.09375 114 164 114.5 C 164.8125 111.1875 165.5 107.65625 165.5 104 C 165.5 94.875 162.0625 86 156 78.5 C 158.25 71.4375 161.375 55.375 155.25 49.25 C 140.25 49.25 131.8125 58.78125 130.25 60.75 C 123.375 58.25 115.9375 57 108 57 C 100.25 57 92.75 58.125 86 60.5 C 83.90625 57.96875 75.625 49.25 61.25 49.25 C 55.25 55.25 58.25 70.71875 60.5 78 C 54.15625 85.625 50.5 94.65625 50.5 104 C 50.5 107.4375 50.78125 110.875 51.5 114 C 48.875 113.78125 38.21875 113 34 113 C 29.78125 113 22.84375 113.90625 18.25 115 C 17.78125 111.375 17.5 107.75 17.5 104 C 17.5 56.3125 56.3125 17.5 104 17.5 Z M 34 115 C 38.15625 115 50.96875 116.15625 52.25 116.25 C 52.46875 117 52.71875 117.75 53 118.5 C 48.78125 118.15625 39.75 117.5625 34 118.25 C 26.96875 119.09375 21.78125 121.875 19.75 123 C 19.3125 121.03125 18.8125 119 18.5 117 C 22.90625 115.96875 30.09375 115 34 115 Z M 177.75 115.25 C 183 115.3125 188.15625 116.4375 189.5 116.75 C 189.375 117.65625 189.15625 118.59375 189 119.5 C 188.3125 119.3125 182.0625 117.40625 175.5 117.25 C 172.28125 117.15625 167.1875 117.6875 163.25 118 C 163.4375 117.5 163.59375 117 163.75 116.5 C 166.46875 116.125 172.9375 115.1875 177.75 115.25 Z M 175.25 119.25 C 181.625 119.40625 188.375 121.40625 188.75 121.5 C 182.84375 150.21875 162.6875 173.59375 136 184.25 L 136 170.5 C 136 161.84375 130.84375 150.59375 123.5 145 C 144.1875 142.03125 157.0625 132.875 162.5 120 C 166.21875 119.6875 171.90625 119.15625 175.25 119.25 Z M 40.5 120 C 46.21875 120.03125 51.34375 120.3125 53.75 120.5 C 59.3125 133.09375 72.09375 142.0625 92.5 145 C 90.1875 146.78125 88.03125 149.09375 86.25 151.75 C 86.1875 151.84375 86.0625 151.90625 86 152 C 82 156.8125 74.5 156.5 67.5 156.5 C 60.34375 156.5 56.0625 150.78125 52.25 145.75 C 48.40625 140.75 43.40625 140.3125 40.75 140 C 38.09375 139.71875 37.375 141.0625 38.75 142 C 46.53125 147.46875 49.59375 154.15625 52.75 160 C 55.59375 165.25 61.4375 168 68 168 L 80.25 168 C 80.15625 168.8125 80 169.71875 80 170.5 L 80 187 C 50.53125 178.5 27.71875 154.875 20.25 125 C 21.8125 124.125 27.3125 121.0625 34.25 120.25 C 35.90625 120.0625 38.125 120 40.5 120 Z M 108 168 C 110.21875 168 112 169.78125 112 172 L 112 190 C 109.34375 190.25 106.71875 190.5 104 190.5 L 104 172 C 104 169.78125 105.78125 168 108 168 Z M 92 172.75 C 94.21875 172.75 96 174.53125 96 176.75 L 96 190 C 93.34375 189.75 90.59375 189.46875 88 189 L 88 176.75 C 88 174.53125 89.78125 172.75 92 172.75 Z M 124 172.75 C 126.21875 172.75 128 174.53125 128 176.75 L 128 187 C 125.375 187.75 122.71875 188.5 120 189 L 120 176.75 C 120 174.53125 121.78125 172.75 124 172.75 Z M 124 172.75 "/>
</g>
</svg>
