<?xml version="1.0" encoding="UTF-8"?>
<svg xmlns="http://www.w3.org/2000/svg" xmlns:xlink="http://www.w3.org/1999/xlink" width="200pt" height="200pt" viewBox="0 0 200 200" version="1.1">
<g id="surface170283">
<path style=" stroke:none;fill-rule:nonzero;fill:rgb(0%,0%,0%);fill-opacity:1;" d="M 50.5 15.902344 C 31.863281 15.902344 16.699219 31.0625 16.699219 49.699219 L 16.699219 151.101562 C 16.699219 169.738281 31.863281 184.902344 50.5 184.902344 L 151.898438 184.902344 C 170.535156 184.902344 185.699219 169.738281 185.699219 151.101562 L 185.699219 49.699219 C 185.699219 31.0625 170.535156 15.902344 151.898438 15.902344 Z M 50.5 21.101562 L 151.898438 21.101562 C 167.667969 21.101562 180.5 33.933594 180.5 49.699219 L 180.5 151.101562 C 180.5 166.871094 167.667969 179.699219 151.898438 179.699219 L 50.5 179.699219 C 34.730469 179.699219 21.898438 166.871094 21.898438 151.101562 L 21.898438 49.699219 C 21.898438 33.933594 34.730469 21.101562 50.5 21.101562 Z M 57.875 28.894531 C 42.339844 28.894531 29.699219 41.535156 29.699219 57.074219 L 29.699219 143.722656 C 29.699219 159.261719 42.339844 171.894531 57.875 171.894531 L 144.519531 171.894531 C 160.058594 171.894531 172.699219 159.261719 172.699219 143.722656 L 172.699219 95.199219 C 172.699219 94.480469 172.117188 93.902344 171.398438 93.902344 C 170.679688 93.902344 170.097656 94.484375 170.097656 95.199219 L 170.097656 143.722656 C 170.097656 157.824219 158.621094 169.300781 144.519531 169.300781 L 57.875 169.300781 C 43.773438 169.300781 32.296875 157.824219 32.296875 143.722656 L 32.296875 57.074219 C 32.296875 42.972656 43.773438 31.496094 57.875 31.496094 L 145.398438 31.496094 C 146.117188 31.496094 146.699219 30.914062 146.699219 30.195312 C 146.699219 29.476562 146.117188 28.894531 145.398438 28.894531 Z M 100 60.207031 C 89.65625 60.207031 88.390625 60.234375 84.339844 60.441406 C 80.546875 60.605469 77.582031 61.167969 74.746094 62.269531 C 71.925781 63.355469 69.726562 64.785156 67.613281 66.890625 C 65.492188 68.996094 64.054688 71.183594 62.960938 73.984375 C 61.851562 76.804688 61.285156 79.742188 61.117188 83.585938 C 60.941406 87.554688 60.882812 88.890625 60.882812 99.082031 C 60.882812 109.363281 60.917969 110.621094 61.121094 114.644531 C 61.285156 118.417969 61.851562 121.359375 62.960938 124.183594 C 64.054688 126.984375 65.492188 129.171875 67.613281 131.277344 C 69.726562 133.382812 71.925781 134.808594 74.746094 135.898438 C 77.582031 136.996094 80.542969 137.5625 84.421875 137.730469 C 88.410156 137.902344 89.753906 137.960938 100 137.960938 C 110.34375 137.960938 111.609375 137.929688 115.660156 137.726562 C 119.453125 137.5625 122.410156 137 125.25 135.898438 C 128.066406 134.808594 130.269531 133.382812 132.386719 131.277344 C 134.507812 129.171875 135.941406 126.980469 137.035156 124.183594 C 138.140625 121.363281 138.710938 118.421875 138.878906 114.589844 C 139.050781 110.621094 139.117188 109.285156 139.117188 99.085938 C 139.117188 88.800781 139.085938 87.542969 138.878906 83.523438 C 138.714844 79.746094 138.140625 76.804688 137.035156 73.984375 C 135.941406 71.183594 134.507812 68.992188 132.386719 66.886719 C 130.269531 64.78125 128.070312 63.359375 125.253906 62.269531 C 122.417969 61.167969 119.457031 60.605469 115.578125 60.4375 C 111.589844 60.265625 110.246094 60.207031 100 60.207031 Z M 100.003906 62.808594 C 110.195312 62.808594 111.527344 62.863281 115.554688 63.035156 C 119.054688 63.191406 121.757812 63.703125 124.320312 64.695312 C 126.785156 65.648438 128.710938 66.890625 130.558594 68.730469 C 132.410156 70.570312 133.664062 72.480469 134.621094 74.929688 L 134.621094 74.933594 C 135.621094 77.476562 136.132812 80.152344 136.285156 83.636719 C 136.488281 87.609375 136.523438 88.859375 136.523438 99.082031 C 136.519531 109.230469 136.457031 110.550781 136.285156 114.535156 C 136.128906 118.011719 135.617188 120.695312 134.617188 123.238281 C 133.660156 125.683594 132.410156 127.597656 130.554688 129.4375 C 128.707031 131.277344 126.777344 132.519531 124.308594 133.46875 C 121.746094 134.464844 119.046875 134.980469 115.539062 135.128906 C 111.539062 135.332031 110.28125 135.359375 100 135.359375 C 89.808594 135.359375 88.476562 135.304688 84.449219 135.128906 C 80.949219 134.976562 78.246094 134.464844 75.6875 133.46875 C 73.214844 132.515625 71.292969 131.277344 69.445312 129.4375 C 67.59375 127.597656 66.34375 125.683594 65.382812 123.234375 C 64.382812 120.6875 63.871094 118.007812 63.722656 114.523438 C 63.519531 110.546875 63.488281 109.300781 63.488281 99.082031 C 63.488281 88.945312 63.546875 87.625 63.722656 83.632812 C 63.875 80.15625 64.386719 77.46875 65.386719 74.929688 C 66.34375 72.480469 67.59375 70.566406 69.445312 68.730469 C 71.292969 66.890625 73.222656 65.648438 75.691406 64.695312 C 78.253906 63.703125 80.957031 63.1875 84.464844 63.035156 C 88.46875 62.832031 89.722656 62.808594 100.003906 62.808594 Z M 171.398438 67.902344 C 170.679688 67.902344 170.097656 68.480469 170.097656 69.199219 L 170.097656 74.402344 C 170.097656 75.117188 170.679688 75.699219 171.398438 75.699219 C 172.117188 75.699219 172.699219 75.117188 172.699219 74.402344 L 172.699219 69.199219 C 172.699219 68.484375 172.117188 67.902344 171.398438 67.902344 Z M 120.875 71.90625 C 117.664062 71.90625 115.046875 74.507812 115.046875 77.707031 C 115.046875 80.90625 117.664062 83.507812 120.875 83.507812 C 124.089844 83.507812 126.707031 80.90625 126.707031 77.707031 C 126.707031 74.507812 124.09375 71.90625 120.875 71.90625 Z M 120.875 74.507812 C 122.65625 74.507812 124.105469 75.941406 124.105469 77.707031 C 124.109375 79.472656 122.660156 80.90625 120.875 80.90625 C 119.09375 80.90625 117.648438 79.472656 117.648438 77.707031 C 117.648438 75.941406 119.09375 74.507812 120.875 74.507812 Z M 171.398438 78.300781 C 170.679688 78.300781 170.097656 78.882812 170.097656 79.601562 L 170.097656 90 C 170.097656 90.71875 170.679688 91.300781 171.398438 91.300781 C 172.117188 91.300781 172.699219 90.71875 172.699219 90 L 172.699219 79.601562 C 172.699219 78.882812 172.117188 78.300781 171.398438 78.300781 Z M 99.96875 78.472656 C 88.539062 78.472656 79.234375 87.714844 79.234375 99.082031 C 79.234375 110.445312 88.539062 119.691406 99.96875 119.691406 C 111.402344 119.691406 120.703125 110.445312 120.703125 99.082031 C 120.703125 87.71875 111.402344 78.472656 99.96875 78.472656 Z M 99.96875 81.074219 C 109.96875 81.074219 118.101562 89.148438 118.101562 99.082031 C 118.101562 109.011719 109.96875 117.09375 99.96875 117.09375 C 89.96875 117.09375 81.835938 109.011719 81.835938 99.082031 C 81.835938 89.152344 89.96875 81.074219 99.96875 81.074219 Z M 99.96875 81.074219 "/>
</g>
</svg>
