<?xml version="1.0" encoding="UTF-8"?>
<svg xmlns="http://www.w3.org/2000/svg" xmlns:xlink="http://www.w3.org/1999/xlink" width="250pt" height="250pt" viewBox="0 0 250 250" version="1.1">
<g id="surface408037">
<path style=" stroke:none;fill-rule:nonzero;fill:rgb(100%,100%,100%);fill-opacity:1;" d="M 40 15.046875 C 22.648438 15.046875 10.046875 25.445312 10.046875 39.746094 C 10.046875 54.097656 22.949219 64.949219 40 64.949219 C 57.351562 64.949219 69.949219 54.351562 69.949219 39.453125 C 69.152344 25.101562 56.800781 15.046875 40 15.046875 Z M 15 75 C 12.25 75 10 77.25 10 80 L 10 225 C 10 227.75 12.25 230 15 230 L 65 230 C 67.75 230 70 227.75 70 225 L 70 80 C 70 77.25 67.75 75 65 75 Z M 90 75 C 87.25 75 85 77.25 85 80 L 85 225 C 85 227.75 87.25 230 90 230 L 135 230 C 137.761719 230 140 227.761719 140 225 L 140 147.5 C 140 135.648438 149.101562 125.996094 160.703125 125.097656 C 161.304688 124.996094 161.898438 125 162.5 125 C 163.101562 125 163.695312 124.996094 164.296875 125.097656 C 175.898438 125.996094 185 135.648438 185 147.5 L 185 225 C 185 227.761719 187.238281 230 190 230 L 235 230 C 237.75 230 240 227.75 240 225 L 240 140 C 240 107.648438 222.644531 75 183.945312 75 C 166.34375 75 153.050781 81.800781 145 87.449219 L 145 80 C 145 77.25 142.75 75 140 75 Z M 90 75 "/>
</g>
</svg>
