<?xml version="1.0" encoding="UTF-8"?>
<svg xmlns="http://www.w3.org/2000/svg" xmlns:xlink="http://www.w3.org/1999/xlink" width="256pt" height="256pt" viewBox="0 0 256 256" version="1.1">
<g id="surface159159">
<path style=" stroke:none;fill-rule:nonzero;fill:rgb(100%,100%,100%);fill-opacity:1;" d="M 52 24 C 36.5625 24 24 36.5625 24 52 L 24 204 C 24 219.4375 36.5625 232 52 232 L 204 232 C 219.4375 232 232 219.4375 232 204 L 232 52 C 232 36.5625 219.4375 24 204 24 Z M 52 32 L 204 32 C 215.03125 32 224 40.96875 224 52 L 224 204 C 224 215.03125 215.03125 224 204 224 L 52 224 C 40.96875 224 32 215.03125 32 204 L 32 52 C 32 40.96875 40.96875 32 52 32 Z M 48 48 C 45.78125 48 44 49.796875 44 52 L 44 60 C 44 62.203125 45.78125 64 48 64 C 50.21875 64 52 62.203125 52 60 L 52 52 C 52 49.796875 50.21875 48 48 48 Z M 68 48 C 65.78125 48 64 49.796875 64 52 L 64 60 C 64 62.203125 65.78125 64 68 64 C 70.21875 64 72 62.203125 72 60 L 72 52 C 72 49.796875 70.21875 48 68 48 Z M 88 48 C 85.78125 48 84 49.796875 84 52 L 84 60 C 84 62.203125 85.78125 64 88 64 C 90.21875 64 92 62.203125 92 60 L 92 52 C 92 49.796875 90.21875 48 88 48 Z M 108 48 C 105.78125 48 104 49.796875 104 52 L 104 60 C 104 62.203125 105.78125 64 108 64 C 110.21875 64 112 62.203125 112 60 L 112 52 C 112 49.796875 110.21875 48 108 48 Z M 128 48 C 125.78125 48 124 49.796875 124 52 L 124 60 C 124 62.203125 125.78125 64 128 64 C 130.21875 64 132 62.203125 132 60 L 132 52 C 132 49.796875 130.21875 48 128 48 Z M 148 48 C 145.78125 48 144 49.796875 144 52 L 144 60 C 144 62.203125 145.78125 64 148 64 C 150.21875 64 152 62.203125 152 60 L 152 52 C 152 49.796875 150.21875 48 148 48 Z M 168 48 C 165.78125 48 164 49.796875 164 52 L 164 60 C 164 62.203125 165.78125 64 168 64 C 170.21875 64 172 62.203125 172 60 L 172 52 C 172 49.796875 170.21875 48 168 48 Z M 188 48 C 185.78125 48 184 49.796875 184 52 L 184 60 C 184 62.203125 185.78125 64 188 64 C 190.21875 64 192 62.203125 192 60 L 192 52 C 192 49.796875 190.21875 48 188 48 Z M 208 48 C 205.78125 48 204 49.796875 204 52 L 204 60 C 204 62.203125 205.78125 64 208 64 C 210.21875 64 212 62.203125 212 60 L 212 52 C 212 49.796875 210.21875 48 208 48 Z M 78 72 C 68.078125 72 60 80.078125 60 90 C 60 99.921875 68.078125 108 78 108 C 87.921875 108 96 99.921875 96 90 C 96 80.078125 87.921875 72 78 72 Z M 78 78.6875 C 84.234375 78.6875 89.3125 83.765625 89.3125 90 C 89.3125 96.234375 84.234375 101.3125 78 101.3125 C 71.765625 101.3125 66.6875 96.234375 66.6875 90 C 66.6875 83.765625 71.765625 78.6875 78 78.6875 Z M 159.5 109.75 C 150.234375 109.75 142.90625 113.015625 137.734375 117.25 L 137.734375 115.890625 C 137.734375 113.6875 135.953125 111.890625 133.734375 111.890625 L 108 111.890625 C 105.796875 111.890625 104 113.6875 104 115.890625 L 104 204 C 104 206.203125 105.796875 208 108 208 L 134.8125 208 C 137.03125 208 138.8125 206.203125 138.8125 204 L 138.8125 159.546875 C 138.8125 146.296875 142.09375 141.375 150.921875 141.375 C 159.421875 141.375 160.859375 147.203125 160.859375 160.265625 L 160.859375 204 C 160.859375 206.203125 162.640625 208 164.859375 208 L 191.6875 208 C 193.90625 208 195.6875 206.203125 195.6875 204 L 195.6875 154.890625 C 195.703125 132.578125 191.40625 109.75 159.5 109.75 Z M 64 112 C 61.78125 112 60 113.796875 60 116 L 60 204 C 60 206.203125 61.78125 208 64 208 L 92 208 C 94.21875 208 96 206.203125 96 204 L 96 116 C 96 113.796875 94.21875 112 92 112 Z M 159.5 117.75 C 182.984375 117.75 187.703125 131.953125 187.703125 154.890625 L 187.703125 200 L 168.859375 200 L 168.859375 160.25 C 168.859375 150.859375 168.859375 133.359375 150.921875 133.359375 C 130.8125 133.359375 130.8125 153.0625 130.8125 159.546875 L 130.8125 200 L 112 200 L 112 119.890625 L 129.75 119.890625 L 129.75 127.703125 C 129.75 129.90625 131.890625 131.703125 134.109375 131.703125 C 135.59375 131.703125 136.953125 130.875 137.640625 129.5625 C 140.515625 124.109375 147.96875 117.75 159.5 117.75 Z M 68 120 L 88 120 L 88 200 L 68 200 Z M 68 120 "/>
</g>
</svg>
